<?xml version="1.0" encoding="UTF-8" standalone="no"?>
<!-- Created with Inkscape (http://www.inkscape.org/) -->

<svg
   width="2000"
   height="1400"
   viewBox="0 0 529.16691 370.41683"
   version="1.1"
   id="svg5"
   inkscape:version="1.2.2 (732a01da63, 2022-12-09)"
   sodipodi:docname="Logo.svg"
   inkscape:export-filename="Logo-Small.png"
   inkscape:export-xdpi="24"
   inkscape:export-ydpi="24"
   xmlns:inkscape="http://www.inkscape.org/namespaces/inkscape"
   xmlns:sodipodi="http://sodipodi.sourceforge.net/DTD/sodipodi-0.dtd"
   xmlns="http://www.w3.org/2000/svg"
   xmlns:svg="http://www.w3.org/2000/svg">
  <sodipodi:namedview
     id="namedview7"
     pagecolor="#ffffff"
     bordercolor="#000000"
     borderopacity="0.25"
     inkscape:showpageshadow="2"
     inkscape:pageopacity="0.0"
     inkscape:pagecheckerboard="0"
     inkscape:deskcolor="#d1d1d1"
     inkscape:document-units="mm"
     showgrid="false"
     inkscape:zoom="0.64693624"
     inkscape:cx="942.13303"
     inkscape:cy="803.78864"
     inkscape:window-width="2560"
     inkscape:window-height="1369"
     inkscape:window-x="2552"
     inkscape:window-y="-8"
     inkscape:window-maximized="1"
     inkscape:current-layer="layer1" />
  <defs
     id="defs2">
    <rect
       x="319.9697"
       y="347.79315"
       width="1531.8357"
       height="519.66058"
       id="rect4392" />
  </defs>
  <g
     inkscape:label="Layer 1"
     inkscape:groupmode="layer"
     id="layer1"
     transform="translate(-27.375442,-83.091046)">
    <g
       id="g443"
       transform="translate(21.02544,9.4246379)">
      <path
         id="path234"
         style="fill:#b9ae3e;fill-opacity:1;stroke:none;stroke-width:2;stroke-linecap:round;stroke-linejoin:round"
         d="m 172.28104,270.93334 a 98.65237,98.65237 0 0 0 98.65229,98.65229 98.65237,98.65237 0 0 0 98.6523,-98.65229 98.65237,98.65237 0 0 0 -98.6523,-98.6523 98.65237,98.65237 0 0 0 -98.65229,98.6523 z m 20.31034,0 a 78.341758,78.341758 0 0 1 78.34195,-78.34195 78.341758,78.341758 0 0 1 78.34195,78.34195 78.341758,78.341758 0 0 1 -78.34195,78.34195 78.341758,78.341758 0 0 1 -78.34195,-78.34195 z" />
      <path
         id="path3225"
         style="fill:#b9ae3e;fill-opacity:1;stroke:none;stroke-width:2;stroke-linecap:round;stroke-linejoin:round"
         inkscape:transform-center-x="0.030493483"
         inkscape:transform-center-y="-7.4710458"
         d="m 270.83463,192.39187 -0.22066,0.44856 a 8.2727146,7.8511786 0 0 0 -7.94628,7.83983 8.2727146,7.8511786 0 0 0 1.72909,4.79764 l -16.58607,33.7137 -36.99257,5.42293 a 8.2727146,7.8511786 0 0 0 -6.34018,-2.80862 8.2727146,7.8511786 0 0 0 -7.64346,4.85862 l -0.62891,0.092 0.42944,0.41755 a 8.2727146,7.8511786 0 0 0 -0.42944,2.48305 8.2727146,7.8511786 0 0 0 8.27237,7.8512 8.2727146,7.8511786 0 0 0 2.42931,-0.34623 l 26.69242,25.95346 -6.3102,37.0706 a 8.2727146,7.8511786 0 0 0 -6.17275,7.58869 8.2727146,7.8511786 0 0 0 3.76204,6.57582 l -0.031,0.1819 0.17829,-0.0941 a 8.2727146,7.8511786 0 0 0 4.36356,1.18753 8.2727146,7.8511786 0 0 0 8.27288,-7.8512 l 33.31993,-17.57103 32.77526,17.1788 a 8.2727146,7.8511786 0 0 0 -0.0574,0.8754 8.2727146,7.8511786 0 0 0 8.27288,7.8512 8.2727146,7.8511786 0 0 0 5.16092,-1.71566 l 0.0444,0.0233 -0.009,-0.0522 a 8.2727146,7.8511786 0 0 0 3.07578,-6.1066 8.2727146,7.8511786 0 0 0 -5.40381,-7.36441 l -6.5443,-37.87211 26.96941,-26.35498 a 8.2727146,7.8511786 0 0 0 2.06034,0.2527 8.2727146,7.8511786 0 0 0 8.27288,-7.8512 8.2727146,7.8511786 0 0 0 -0.32607,-2.18074 l 0.32607,-0.31833 -0.45372,-0.0651 a 8.2727146,7.8511786 0 0 0 -7.81916,-5.28702 8.2727146,7.8511786 0 0 0 -6.6585,3.20136 l -36.69234,-5.28444 -16.59795,-33.52508 a 8.2727146,7.8511786 0 0 0 1.83503,-4.92838 8.2727146,7.8511786 0 0 0 -8.16178,-7.84965 z" />
      <text
         xml:space="preserve"
         transform="matrix(0.26458333,0,0,0.26458333,0.82444497,-29.037509)"
         id="text4390"
         style="font-weight:bold;font-size:8px;font-family:Arial;-inkscape-font-specification:'Arial, Bold';white-space:pre;shape-inside:url(#rect4392);display:inline;fill:#9d9d9d;fill-opacity:1;stroke:#2d2d2d;stroke-width:7.55906;stroke-linecap:round;stroke-linejoin:round"><tspan
           x="319.96875"
           y="717.79297"
           id="tspan487"><tspan
             style="font-size:400px;font-family:Monofonto;-inkscape-font-specification:'Monofonto, Bold';fill:#b9ae3e;stroke:none"
             id="tspan485">RIM-TEC</tspan></tspan></text>
      <path
         id="rect4652"
         style="fill:#b9ae3e;fill-opacity:1;stroke:none;stroke-width:2;stroke-linecap:round;stroke-linejoin:round"
         d="m 354.58456,219.21298 v 20.44888 h 92.4295 v -20.44888 z m 92.49099,0 v 20.44888 l 17.28939,-10.2247 z" />
      <path
         id="rect4652-6"
         style="fill:#b9ae3e;fill-opacity:1;stroke:none;stroke-width:2;stroke-linecap:round;stroke-linejoin:round"
         d="m 354.58456,301.17076 v 20.44889 h 92.4295 l 17.2899,-10.22419 -17.2899,-10.2247 z" />
      <path
         id="rect4652-6-1"
         style="fill:#b9ae3e;fill-opacity:1;stroke:none;stroke-width:2;stroke-linecap:round;stroke-linejoin:round"
         d="m 354.58456,260.19187 v 20.44888 h 137.00817 v -20.44888 z m 137.06967,0 v 20.44888 l 17.28938,-10.2247 z" />
      <path
         id="rect4652-5"
         style="fill:#b9ae3e;fill-opacity:1;stroke:none;stroke-width:2;stroke-linecap:round;stroke-linejoin:round"
         d="m -94.791113,-301.17076 17.289384,-10.2247 -17.289384,-10.22419 h -92.429497 v 20.44889 z"
         transform="scale(-1)" />
      <path
         id="rect4652-6-6"
         style="fill:#b9ae3e;fill-opacity:1;stroke:none;stroke-width:2;stroke-linecap:round;stroke-linejoin:round"
         d="m -94.791113,-220.24702 17.289384,-10.22418 -17.289384,-10.2247 h -92.429497 v 20.44888 z"
         transform="scale(-1)" />
      <path
         id="rect4652-6-1-3"
         style="fill:#b9ae3e;fill-opacity:1;stroke:none;stroke-width:2;stroke-linecap:round;stroke-linejoin:round"
         d="m -50.212439,-260.70863 17.289384,-10.2247 -17.289384,-10.2247 H -187.22061 v 20.4494 z"
         transform="scale(-1)" />
      <text
         xml:space="preserve"
         style="font-style:normal;font-variant:normal;font-weight:normal;font-stretch:normal;font-size:105.833px;font-family:Monofonto;-inkscape-font-specification:'Monofonto, Normal';font-variant-ligatures:normal;font-variant-caps:normal;font-variant-numeric:normal;font-variant-east-asian:normal;letter-spacing:15.875px;fill:#b9ae3e;fill-opacity:1;stroke:none;stroke-width:2;stroke-linecap:round;stroke-linejoin:round"
         x="21.730993"
         y="433.95288"
         id="text4918"><tspan
           sodipodi:role="line"
           id="tspan4916"
           style="font-style:normal;font-variant:normal;font-weight:normal;font-stretch:normal;font-size:70.5556px;font-family:Monofonto;-inkscape-font-specification:'Monofonto, Normal';font-variant-ligatures:normal;font-variant-caps:normal;font-variant-numeric:normal;font-variant-east-asian:normal;stroke-width:2"
           x="21.730993"
           y="433.95288">INDUSTRIES</tspan></text>
    </g>
  </g>
</svg>
