<?xml version="1.0" encoding="UTF-8" standalone="no"?>
<!-- Created with Inkscape (http://www.inkscape.org/) -->

<svg
   width="1024mm"
   height="1024mm"
   viewBox="0 0 1024 1024"
   version="1.1"
   id="svg1"
   xml:space="preserve"
   inkscape:version="1.3.2 (091e20e, 2023-11-25, custom)"
   sodipodi:docname="RATS_RatsLink_south.svg"
   inkscape:export-filename="RATS_RatsLink_south.png"
   inkscape:export-xdpi="6.3499999"
   inkscape:export-ydpi="6.3499999"
   xmlns:inkscape="http://www.inkscape.org/namespaces/inkscape"
   xmlns:sodipodi="http://sodipodi.sourceforge.net/DTD/sodipodi-0.dtd"
   xmlns="http://www.w3.org/2000/svg"
   xmlns:svg="http://www.w3.org/2000/svg"><sodipodi:namedview
     id="namedview1"
     pagecolor="#ffffff"
     bordercolor="#000000"
     borderopacity="0.25"
     inkscape:showpageshadow="2"
     inkscape:pageopacity="0.0"
     inkscape:pagecheckerboard="0"
     inkscape:deskcolor="#d1d1d1"
     inkscape:document-units="mm"
     inkscape:zoom="0.15154114"
     inkscape:cx="2830.9144"
     inkscape:cy="1791.5927"
     inkscape:window-width="2560"
     inkscape:window-height="1369"
     inkscape:window-x="2552"
     inkscape:window-y="-8"
     inkscape:window-maximized="1"
     inkscape:current-layer="layer1" /><defs
     id="defs1" /><g
     inkscape:label="Layer 1"
     inkscape:groupmode="layer"
     id="layer1"><g
       id="g1"
       transform="matrix(0.48167092,0,0,0.48167092,181.57886,233.95737)"><rect
         style="fill:#000000;fill-opacity:0.00392157;stroke-width:49.9999;stroke-linecap:round;stroke-linejoin:round"
         id="rect1"
         width="1024"
         height="1024"
         x="0"
         y="0" /><path
         style="fill:#395d39;fill-opacity:1;stroke:none;stroke-width:40;stroke-linecap:round;stroke-linejoin:round;stroke-dasharray:none"
         d="M 202.55754,523.26372 155.96931,142.45554 C 198.80447,35.334868 245.49573,53.537644 293.70842,121.18699 l 23.80052,261.29925 c 30.8673,5.07266 30.11913,36.10066 30.89002,56.7161 l 127.61127,41.52429 210.65984,4.05117 3.03837,135.71355 -276.49106,1.01277 c -3.04261,54.67597 25.31945,103.642 37.97954,155.46293 L 267.37595,851.40695 213.69821,690.3737 C 201.64873,634.67037 188.37146,578.96705 202.55754,523.26372 Z"
         id="path1"
         sodipodi:nodetypes="ccccccccccccc" /><path
         style="fill:#b7c1b1;fill-opacity:1;stroke:none;stroke-width:40;stroke-linecap:round;stroke-linejoin:round;stroke-dasharray:none"
         d="m 330.95898,421.09564 c -20.89031,10.73594 -42.59216,12.51593 -73.14532,37.74615 -4.61844,17.77634 -5.78627,33.82737 -5.01304,48.90788 11.39651,27.30208 43.03499,39.88272 68.03416,57.29195 l 73.0472,36.52359 295.51222,4.89053 -1.20494,-53.82117 -0.32883,-14.68636 c -64.3667,1.32992 -120.82869,9.43531 -193.71759,3.46048 -55.27113,-12.2913 -111.89419,-14.44313 -164.71426,-45.11738 -4.77431,-24.11036 0.90743,-49.73599 1.5304,-75.19567 z"
         id="path2"
         sodipodi:nodetypes="ccccccccccc" /><path
         style="fill:#1f3f1f;fill-opacity:1;stroke:none;stroke-width:40;stroke-linecap:round;stroke-linejoin:round;stroke-dasharray:none"
         d="m 399.17365,601.56521 -146.37303,-93.81554 -47.11439,-2.16593 -0.25686,115.60913 52.44263,215.36977 14.79562,14.84429 183.82097,-74.43988 z"
         id="path3"
         sodipodi:nodetypes="cccccccc" /><path
         style="fill:none;fill-opacity:1;stroke:#000000;stroke-width:50;stroke-linecap:round;stroke-linejoin:round;stroke-dasharray:none;paint-order:markers fill stroke"
         d="M 202.55754,523.26372 155.96931,142.45554 c 0,-112.358522 109.60485,-119.826844 137.73911,-21.26855 l 23.80052,261.29925 c 30.8673,5.07266 30.11913,36.10066 30.89002,56.7161 l 127.61127,41.52429 215.89769,5.79712 -2.19948,133.9676 -276.49106,1.01277 c -3.04261,54.67597 25.31945,103.642 37.97954,155.46293 L 267.37595,851.40697 213.69821,690.3737 C 201.64873,634.67037 188.37146,578.96705 202.55754,523.26372 Z"
         id="path1-1"
         sodipodi:nodetypes="ccccccccccccc" /></g></g></svg>
