<?xml version="1.0" encoding="UTF-8" standalone="no"?>
<!-- Created with Inkscape (http://www.inkscape.org/) -->

<svg
   width="1024mm"
   height="1024mm"
   viewBox="0 0 1024 1024"
   version="1.1"
   id="svg1"
   xml:space="preserve"
   inkscape:version="1.3.2 (091e20e, 2023-11-25, custom)"
   sodipodi:docname="RATS_RatsLink.svg"
   inkscape:export-filename="RATS_Rats.png"
   inkscape:export-xdpi="6.3499999"
   inkscape:export-ydpi="6.3499999"
   xmlns:inkscape="http://www.inkscape.org/namespaces/inkscape"
   xmlns:sodipodi="http://sodipodi.sourceforge.net/DTD/sodipodi-0.dtd"
   xmlns:xlink="http://www.w3.org/1999/xlink"
   xmlns="http://www.w3.org/2000/svg"
   xmlns:svg="http://www.w3.org/2000/svg"><sodipodi:namedview
     id="namedview1"
     pagecolor="#ffffff"
     bordercolor="#000000"
     borderopacity="0.25"
     inkscape:showpageshadow="2"
     inkscape:pageopacity="0.0"
     inkscape:pagecheckerboard="0"
     inkscape:deskcolor="#d1d1d1"
     inkscape:document-units="mm"
     inkscape:zoom="0.42862307"
     inkscape:cx="1469.8229"
     inkscape:cy="2593.1875"
     inkscape:window-width="2560"
     inkscape:window-height="1369"
     inkscape:window-x="-8"
     inkscape:window-y="-8"
     inkscape:window-maximized="1"
     inkscape:current-layer="layer1" /><defs
     id="defs1"><linearGradient
       id="linearGradient13"
       inkscape:collect="always"><stop
         style="stop-color:#b0b7af;stop-opacity:1;"
         offset="0"
         id="stop13" /><stop
         style="stop-color:#f7f7f7;stop-opacity:1;"
         offset="1"
         id="stop14" /></linearGradient><linearGradient
       id="linearGradient11"
       inkscape:collect="always"><stop
         style="stop-color:#344832;stop-opacity:1;"
         offset="0"
         id="stop11" /><stop
         style="stop-color:#2f5921;stop-opacity:1;"
         offset="1"
         id="stop12" /></linearGradient><linearGradient
       inkscape:collect="always"
       xlink:href="#linearGradient11"
       id="linearGradient12"
       x1="267.90251"
       y1="587.66801"
       x2="744.44758"
       y2="587.66801"
       gradientUnits="userSpaceOnUse" /><linearGradient
       inkscape:collect="always"
       xlink:href="#linearGradient13"
       id="linearGradient14"
       x1="342.05093"
       y1="231.33072"
       x2="368.98904"
       y2="535.72174"
       gradientUnits="userSpaceOnUse" /></defs><g
     inkscape:label="Layer 1"
     inkscape:groupmode="layer"
     id="layer1"><rect
       style="display:none;fill:#000000;fill-opacity:0.00392157;stroke-width:49.9999;stroke-linecap:round;stroke-linejoin:round"
       id="rect1"
       width="1024"
       height="1024"
       x="0"
       y="0" /><path
       style="display:none;fill:#395d39;fill-opacity:1;stroke:none;stroke-width:40;stroke-linecap:round;stroke-linejoin:round;stroke-dasharray:none"
       d="M 202.55754,523.26372 155.96931,142.45554 C 198.80447,35.334868 245.49573,53.537644 293.70842,121.18699 l 23.80052,261.29925 c 30.8673,5.07266 30.11913,36.10066 30.89002,56.7161 l 127.61127,41.52429 210.65984,4.05117 3.03837,135.71355 -276.49106,1.01277 c -3.04261,54.67597 25.31945,103.642 37.97954,155.46293 L 267.37595,851.40695 213.69821,690.3737 C 201.64873,634.67037 188.37146,578.96705 202.55754,523.26372 Z"
       id="path1"
       sodipodi:nodetypes="ccccccccccccc" /><path
       style="display:none;fill:#b7c1b1;fill-opacity:1;stroke:none;stroke-width:40;stroke-linecap:round;stroke-linejoin:round;stroke-dasharray:none"
       d="m 330.95898,421.09564 c -20.89031,10.73594 -42.59216,12.51593 -73.14532,37.74615 -4.61844,17.77634 -5.78627,33.82737 -5.01304,48.90788 11.39651,27.30208 43.03499,39.88272 68.03416,57.29195 l 73.0472,36.52359 295.51222,4.89053 -1.20494,-53.82117 -0.32883,-14.68636 c -64.3667,1.32992 -120.82869,9.43531 -193.71759,3.46048 -55.27113,-12.2913 -111.89419,-14.44313 -164.71426,-45.11738 -4.77431,-24.11036 0.90743,-49.73599 1.5304,-75.19567 z"
       id="path2"
       sodipodi:nodetypes="ccccccccccc" /><path
       style="display:none;fill:#1f3f1f;fill-opacity:1;stroke:none;stroke-width:40;stroke-linecap:round;stroke-linejoin:round;stroke-dasharray:none"
       d="m 399.17365,601.56521 -146.37303,-93.81554 -47.11439,-2.16593 -0.25686,115.60913 52.44263,215.36977 14.79562,14.84429 183.82097,-74.43988 z"
       id="path3"
       sodipodi:nodetypes="cccccccc" /><path
       style="display:none;fill:none;fill-opacity:1;stroke:#000000;stroke-width:50;stroke-linecap:round;stroke-linejoin:round;stroke-dasharray:none;paint-order:markers fill stroke"
       d="M 234.65645,512 155.96931,142.45554 c 0,-112.358522 109.60485,-119.826844 137.73911,-21.26855 l 23.80052,261.29925 c 30.8673,5.07266 30.11913,36.10066 30.89002,56.7161 l 127.61127,41.52429 215.89769,5.79712 -2.19948,133.9676 -276.49106,1.01277 c -3.04261,54.67597 25.31945,103.642 37.97954,155.46293 L 367.3764,813.13519 306.29122,653.3365 C 294.24174,597.63317 220.47037,567.70333 234.65645,512 Z"
       id="path1-1"
       sodipodi:nodetypes="ccccccccccccc" /><g
       id="g19"><g
         id="g18"><circle
           style="fill:none;fill-opacity:1;stroke:#b82929;stroke-width:31.5;stroke-linecap:round;stroke-linejoin:round;stroke-dasharray:none;stroke-opacity:1"
           id="path4"
           cx="598.44012"
           cy="739.25476"
           r="118.46773" /><path
           style="fill:#b82929;fill-opacity:1;stroke:#b82929;stroke-width:31.5;stroke-linecap:round;stroke-linejoin:round;stroke-dasharray:none;stroke-opacity:1"
           d="m 479.97239,739.25474 h 50.79656"
           id="path5" /><path
           style="fill:#b82929;fill-opacity:1;stroke:#b82929;stroke-width:31.5;stroke-linecap:round;stroke-linejoin:round;stroke-dasharray:none;stroke-opacity:1"
           d="M 716.90785,739.25474 H 663.46119"
           id="path6" /><path
           style="fill:#b82929;fill-opacity:1;stroke:#b82929;stroke-width:31.5;stroke-linecap:round;stroke-linejoin:round;stroke-dasharray:none;stroke-opacity:1"
           d="m 598.44011,620.78703 v 49.22146"
           id="path7" /><path
           style="fill:#b82929;fill-opacity:1;stroke:#b82929;stroke-width:31.5;stroke-linecap:round;stroke-linejoin:round;stroke-dasharray:none;stroke-opacity:1"
           d="M 598.44011,857.72248 V 805.75615"
           id="path8" /></g><circle
         style="fill:#ffffff;fill-opacity:0.11336516;stroke:none;stroke-width:15;stroke-linecap:round;stroke-linejoin:round;stroke-dasharray:none;stroke-opacity:1"
         id="path4-0"
         cx="598.43994"
         cy="739.25464"
         r="118.46773" /><path
         id="path4-0-0"
         style="fill:#000000;fill-opacity:0.09904534;stroke:none;stroke-width:15;stroke-linecap:round;stroke-linejoin:round;stroke-dasharray:none;stroke-opacity:1"
         d="M 680.85715 654.19831 L 588.36977 857.00195 A 118.46773 118.46773 0 0 0 598.43996 857.72232 A 118.46773 118.46773 0 0 0 607.09214 857.10376 L 693.2321 668.21916 A 118.46773 118.46773 0 0 0 680.85715 654.19831 z " /><path
         id="path4-0-0-2"
         style="fill:#000000;fill-opacity:0.11694511;stroke:none;stroke-width:15;stroke-linecap:round;stroke-linejoin:round;stroke-dasharray:none;stroke-opacity:1"
         d="M 611.6345 621.55276 L 517.20977 825.1362 A 118.46773 118.46773 0 0 0 571.8483 854.39953 L 668.71629 643.893 A 118.46773 118.46773 0 0 0 611.6345 621.55276 z " /><path
         id="path4-3"
         style="fill:url(#linearGradient12);stroke:none;stroke-width:17.3863;stroke-linecap:round;stroke-linejoin:round;stroke-dasharray:none;stroke-opacity:1"
         inkscape:label="MAin"
         d="m 296.91499,298.76678 30.86449,304.93952 h 249.42456 c -66.78124,10.45378 -116.02201,67.95385 -116.07818,135.54832 -6e-5,75.83659 61.47751,137.31438 137.3141,137.31461 75.83679,6e-5 137.31467,-61.47782 137.31461,-137.31461 C 735.73949,671.83024 686.77467,614.3921 620.20245,603.7063 H 744.44758 V 530.86682 H 391.35957 L 361.72986,298.76678 c -56.70858,-299.45766235 -46.91292,-157.46982 -64.81487,0 z m 301.52497,322.02013 c 65.4279,2e-5 118.46769,53.03981 118.4677,118.46771 -2e-5,65.4279 -53.0398,118.46768 -118.4677,118.4677 -65.4279,-10e-6 -118.46769,-53.0398 -118.46771,-118.4677 1e-5,-65.4279 53.03981,-118.4677 118.46771,-118.46771 z"
         sodipodi:nodetypes="ccccscccccccsssss" /><path
         style="fill:url(#linearGradient14);fill-opacity:1;stroke:none;stroke-width:25;stroke-linecap:round;stroke-linejoin:round;stroke-dasharray:none;stroke-opacity:1"
         d="M 313.24047,132.60258 296.91499,285.4629 325.61035,582.27544 391.09292,511.99999 361.72986,298.76678 Z"
         id="path12" /><path
         id="path4-3-5"
         style="fill:none;fill-opacity:1;stroke:#000000;stroke-width:25;stroke-linecap:round;stroke-linejoin:round;stroke-dasharray:none;stroke-opacity:1"
         d="m 296.91499,298.76678 27.44423,271.1475 c 2.57314,19.29593 8.10767,35.63049 31.81522,33.79202 h 221.0296 c -66.78124,10.45378 -116.02201,67.95385 -116.07818,135.54832 -6e-5,75.83659 61.47751,137.31438 137.3141,137.31461 75.83679,6e-5 137.31467,-61.47782 137.31461,-137.31461 -0.0151,-67.42438 -48.9799,-124.86252 -115.55212,-135.54832 h 100.43863 c 17.76233,1.66 23.44157,-6.95063 23.8065,-20.07843 v -32.24613 c -0.58464,-18.98435 -11.70075,-18.22216 -21.18757,-20.51492 H 417.28583 c -19.74014,-1.87671 -26.68755,-14.22019 -28.39541,-30.85058 L 361.72986,298.76678 c -60.0826,-237.038934 -62.3457,-237.037274 -64.81487,0 z"
         inkscape:label="Outline"
         sodipodi:nodetypes="cccccscccccccccc" /></g></g></svg>
