<?xml version="1.0" encoding="UTF-8" standalone="no"?>
<!-- Created with Inkscape (http://www.inkscape.org/) -->

<svg
   width="512mm"
   height="512mm"
   viewBox="0 0 512 512"
   version="1.1"
   id="svg1"
   xml:space="preserve"
   inkscape:version="1.3.2 (091e20e, 2023-11-25, custom)"
   sodipodi:docname="RATS_RatsLink_east.svg"
   inkscape:export-filename="RATS_RatsLink_east.png"
   inkscape:export-xdpi="12.7"
   inkscape:export-ydpi="12.7"
   xmlns:inkscape="http://www.inkscape.org/namespaces/inkscape"
   xmlns:sodipodi="http://sodipodi.sourceforge.net/DTD/sodipodi-0.dtd"
   xmlns="http://www.w3.org/2000/svg"
   xmlns:svg="http://www.w3.org/2000/svg"><sodipodi:namedview
     id="namedview1"
     pagecolor="#ffffff"
     bordercolor="#000000"
     borderopacity="0.25"
     inkscape:showpageshadow="2"
     inkscape:pageopacity="0.0"
     inkscape:pagecheckerboard="0"
     inkscape:deskcolor="#d1d1d1"
     inkscape:document-units="mm"
     inkscape:zoom="0.36945288"
     inkscape:cx="1077.2686"
     inkscape:cy="1000.1275"
     inkscape:window-width="2560"
     inkscape:window-height="1369"
     inkscape:window-x="2552"
     inkscape:window-y="-8"
     inkscape:window-maximized="1"
     inkscape:current-layer="layer1" /><defs
     id="defs1" /><g
     inkscape:label="Layer 1"
     inkscape:groupmode="layer"
     id="layer1"><rect
       style="fill:#000000;fill-opacity:0.00392157;stroke:none;stroke-width:10;stroke-linecap:round;stroke-linejoin:round;stroke-dasharray:none;stroke-opacity:1"
       id="rect5"
       width="512"
       height="512"
       x="0"
       y="0" /><path
       style="fill:none;stroke-width:10;stroke-linecap:round;stroke-linejoin:round;stroke:#000000;stroke-opacity:1;stroke-dasharray:none"
       d="m 218.25575,221.80051 -2.27877,-100.26599 c 5.62522,-10.98748 12.37062,-14.97388 22.02813,-0.75959 l 1.51918,100.51919 8.6087,0.50639 3.29156,-5.06394 12.91304,3.54476 0.2532,8.60869 c 42.20919,4.3416 53.84872,-2.32188 72.16114,-6.58312 3.13807,7.93005 3.32873,18.00366 2.78516,28.61126 -19.61845,9.30648 -52.12951,7.15286 -80.01024,9.11509 2.54118,14.90974 -0.79931,24.31124 21.77494,57.9821 l -51.90537,12.65984 c -9.12638,-16.23131 -13.95165,-34.34436 -17.72379,-52.91815 L 209.64706,256 h -21.77494 l 12.65985,-33.6931 z"
       id="path1"
       sodipodi:nodetypes="cccccccccccccccccc" /><path
       style="fill:#b7c1b1;fill-opacity:1;stroke-width:49.9999;stroke-linecap:round;stroke-linejoin:round"
       d="m 253.45013,222.4968 -0.72794,1.24002 c -1.81872,1.99064 -2.80771,2.56988 -3.95575,2.71613 l -5.55356,0.11067 -6.98015,6.75735 -0.75959,17.97698 c 16.75017,6.46619 35.07693,2.82174 52.54015,2.62435 21.94844,-0.42276 39.24889,-2.91995 47.21945,-6.5489 l -0.27012,-11.77366 c -25.44883,7.17112 -46.56884,6.79633 -73.0304,3.16496 l 0.70735,-5.43544 c -1.42906,-0.83164 -2.63097,-2.00399 -3.05446,-4.34398 l -0.12156,-4.7794 z"
       id="path2"
       sodipodi:nodetypes="ccccccsccccccc" /><path
       style="fill:#395d39;fill-opacity:1;stroke:none;stroke-width:10;stroke-linecap:round;stroke-linejoin:round;stroke-dasharray:none;stroke-opacity:1"
       d="m 261.93222,238.7647 c 31.3225,4.75147 54.09413,2.38873 73.03041,-3.16496 l -1.44217,-7.50639 c -21.56561,6.49476 -45.25815,8.526 -70.88089,5.23591 z"
       id="path3"
       sodipodi:nodetypes="ccccc" /><path
       style="fill:#395d39;fill-opacity:1;stroke:none;stroke-width:10;stroke-linecap:round;stroke-linejoin:round;stroke-dasharray:none;stroke-opacity:1"
       d="m 235.85293,242.30946 -18.27942,1.44634 0.14898,-10.5543 -6.22626,-2.11641 -2.03907,20.46606 -15.38172,-0.2532 9.74809,-25.0032 h 15.12851 c 1.58548,-0.67525 3.52334,-0.36382 3.98786,-4.17775 l -2.21548,-95.01214 0.0301,-3.08313 c 0.16183,-1.14942 0.40331,-2.22032 0.98273,-3.31009 2.83739,-5.67527 6.5032,-6.31585 10.77239,-0.2385 0.64454,0.91684 0.75136,2.16998 1.0978,3.38492 l 1.29605,97.81585 c -0.37584,1.63274 0.64809,3.16341 3.54476,4.55755 l 4.76463,0.33216 -6.98011,6.75735 z"
       id="path4"
       sodipodi:nodetypes="ccccccccccccccccccc" /><path
       style="fill:#1f3f1f;fill-opacity:1;stroke:none;stroke-width:10;stroke-linecap:round;stroke-linejoin:round;stroke-dasharray:none;stroke-opacity:1"
       d="m 209.45716,251.55115 0.69629,-21.58504 7.46931,0.44309 0.4431,12.40665 17.78707,-0.50639 -0.37979,8.98849 23.03499,3.82018 c -2.05181,1.40885 -4.38866,2.46106 -3.66542,6.0545 1.53822,16.84074 7.41099,34.72775 18.73656,53.93096 l -41.77748,10.50766 c -9.16017,-16.44464 -13.99938,-34.53537 -16.07801,-53.67774 l -1.26598,-16.81059 c 0.0501,-1.86508 -1.92393,-2.98388 -5.00064,-3.57177 z"
       id="path5"
       sodipodi:nodetypes="ccccccccccccc" /></g></svg>
