<?xml version="1.0" encoding="UTF-8" standalone="no"?>
<!-- Created with Inkscape (http://www.inkscape.org/) -->

<svg
   width="512mm"
   height="512mm"
   viewBox="0 0 512 512"
   version="1.1"
   id="svg1"
   xml:space="preserve"
   inkscape:version="1.3.2 (091e20e, 2023-11-25, custom)"
   sodipodi:docname="RATS_RatsLink_north.svg"
   inkscape:export-filename="RATS_RatsLink_north.png"
   inkscape:export-xdpi="12.7"
   inkscape:export-ydpi="12.7"
   xmlns:inkscape="http://www.inkscape.org/namespaces/inkscape"
   xmlns:sodipodi="http://sodipodi.sourceforge.net/DTD/sodipodi-0.dtd"
   xmlns="http://www.w3.org/2000/svg"
   xmlns:svg="http://www.w3.org/2000/svg"><sodipodi:namedview
     id="namedview1"
     pagecolor="#ffffff"
     bordercolor="#000000"
     borderopacity="0.25"
     inkscape:showpageshadow="2"
     inkscape:pageopacity="0.0"
     inkscape:pagecheckerboard="0"
     inkscape:deskcolor="#d1d1d1"
     inkscape:document-units="mm"
     inkscape:zoom="0.52248527"
     inkscape:cx="1188.5503"
     inkscape:cy="864.13919"
     inkscape:window-width="2560"
     inkscape:window-height="1369"
     inkscape:window-x="2552"
     inkscape:window-y="-8"
     inkscape:window-maximized="1"
     inkscape:current-layer="layer1" /><defs
     id="defs1" /><g
     inkscape:label="Layer 1"
     inkscape:groupmode="layer"
     id="layer1"><path
       style="fill:#1f3f1f;fill-opacity:1;stroke:none;stroke-width:10;stroke-linecap:round;stroke-linejoin:round;stroke-opacity:1"
       d="m 318.14923,259.96211 13.72864,-7.20828 13.16624,-37.85294 14.53017,42.21561 -13.85332,68.37325 -35.62842,-14.50202 z"
       id="path2"
       sodipodi:nodetypes="ccccccc" /><path
       style="fill:#395d39;fill-opacity:1;stroke:none;stroke-width:10;stroke-linecap:round;stroke-linejoin:round;stroke-opacity:1"
       d="m 318.14923,259.96211 15.31112,-5.6258 12.15345,-36.84015 13.96048,39.62034 9.42152,-113.52861 -13.74926,-16.10348 -15.96419,11.46172 -6.27303,80.19548 -30.61539,5.90823 -12.5326,34.01708 z"
       id="path3" /><path
       style="fill:none;fill-opacity:0.00392157;stroke:#000000;stroke-width:10;stroke-linecap:round;stroke-linejoin:round;stroke-opacity:1"
       d="m 333.00932,219.14161 4.11784,-77.52313 c 10.79089,-13.62419 21.5469,-24.28367 31.86864,1.96941 l -10.20511,96.32204 c 2.35714,28.107 -0.19428,56.52078 -13.06973,85.57982 -11.78911,-5.87833 -23.39707,-13.93059 -35.62842,-14.50202 4.0083,-17.24904 9.05351,-34.6866 8.05669,-51.02562 l -28.2879,-0.89519 12.5326,-34.01708 z"
       id="path1"
       sodipodi:nodetypes="cccccccccc" /><rect
       style="fill:#000000;fill-opacity:0.00392157;stroke:none;stroke-width:10;stroke-linecap:round;stroke-linejoin:round;stroke-opacity:1"
       id="rect3"
       width="512"
       height="512"
       x="0"
       y="0" /></g></svg>
